<?xml version="1.0" encoding="utf-8"?>
<!-- Generator: Adobe Illustrator 22.1.0, SVG Export Plug-In . SVG Version: 6.00 Build 0)  -->
<svg version="1.1" id="Layer_1" xmlns="http://www.w3.org/2000/svg" xmlns:xlink="http://www.w3.org/1999/xlink" x="0px" y="0px"
	 viewBox="0 0 32 32" style="enable-background:new 0 0 32 32;" xml:space="preserve">
<title>docker</title>
<path d="M6.4,23c-0.9,0-1.7-0.7-1.7-1.7s0.7-1.7,1.7-1.7c1,0,1.8,0.7,1.8,1.7C8.2,22.3,7.3,23,6.4,23L6.4,23z M27.8,14
	c-0.2-1.3-1-2.4-2.1-3.2l-0.4-0.3l-0.3,0.4c-0.7,0.7-0.9,2.1-0.8,3.1c0.1,0.8,0.3,1.5,0.7,2.1c-0.3,0.2-0.8,0.3-1.1,0.5
	c-0.8,0.2-1.5,0.3-2.2,0.3H0.1L0,17.3c-0.2,1.6,0.1,3.2,0.8,4.7l0.3,0.6v0.1c2,3.3,5.6,4.8,9.4,4.8c7.5,0,13.6-3.2,16.5-10.2
	c1.9,0.1,3.8-0.4,4.7-2.2l0.2-0.4l-0.4-0.3C30.5,13.8,29,13.7,27.8,14L27.8,14L27.8,14z M17.1,12.7h-3.2v3.2h3.2V12.7z M17.1,8.6
	h-3.2v3.2h3.2V8.6z M17.1,4.5h-3.2v3.2h3.2V4.5z M21.1,12.7h-3.2v3.2h3.2L21.1,12.7L21.1,12.7z M9.1,12.7H5.8v3.2h3.2L9.1,12.7
	L9.1,12.7z M13.1,12.7H9.9v3.2h3.2L13.1,12.7L13.1,12.7z M5.1,12.7H1.9v3.2h3.2L5.1,12.7L5.1,12.7z M13.1,8.6H9.9v3.2h3.2L13.1,8.6
	L13.1,8.6z M9,8.6H5.8v3.2h3.2L9,8.6L9,8.6L9,8.6z"/>
</svg>
