<?xml version="1.0" standalone="no"?>
<!DOCTYPE svg PUBLIC "-//W3C//DTD SVG 20010904//EN"
 "http://www.w3.org/TR/2001/REC-SVG-20010904/DTD/svg10.dtd">
<svg version="1.0" xmlns="http://www.w3.org/2000/svg"
 width="1024.000000pt" height="1024.000000pt" viewBox="0 0 1024.000000 1024.000000"
 preserveAspectRatio="xMidYMid meet">

<g transform="translate(0.000000,1024.000000) scale(0.100000,-0.100000)"
fill="#000000" stroke="none">
<path d="M4860 10223 c-363 -24 -616 -66 -1029 -168 -651 -161 -1202 -425
-1767 -848 -408 -304 -702 -596 -1002 -993 -491 -652 -758 -1250 -937 -2096
-133 -630 -138 -1289 -15 -1901 153 -758 368 -1301 735 -1857 207 -314 393
-547 635 -794 459 -469 1043 -870 1631 -1119 408 -173 976 -321 1474 -383 175
-22 696 -30 892 -15 529 42 1189 202 1653 401 520 222 1025 553 1471 962 477
438 937 1093 1199 1708 196 459 356 1114 400 1635 13 154 13 606 0 755 -40
458 -166 1022 -322 1440 -148 396 -339 753 -601 1120 -212 297 -362 474 -598
705 -373 364 -831 691 -1297 924 -554 277 -1298 475 -1960 520 -139 10 -449
12 -562 4z m-260 -1839 c644 -77 1347 -389 1936 -860 142 -113 376 -324 372
-335 -2 -4 -61 -49 -133 -100 -294 -208 -570 -458 -720 -653 l-68 -88 23 -72
c91 -287 291 -530 571 -695 108 -63 346 -165 314 -134 -5 6 -59 43 -120 84
-122 83 -281 229 -355 328 -70 93 -125 194 -177 322 l-44 112 28 31 c274 298
417 435 642 614 132 106 360 262 504 346 126 74 383 198 469 226 80 27 70 32
208 -93 305 -274 581 -685 753 -1122 256 -651 294 -1327 117 -2051 -133 -541
-396 -1087 -726 -1504 -99 -126 -374 -395 -479 -468 -88 -63 -91 -64 -145 -60
-104 8 -236 92 -280 179 l-19 37 71 168 c351 837 522 1521 469 1882 -52 357
-273 547 -503 434 -120 -59 -196 -159 -340 -447 -261 -521 -446 -1132 -658
-2180 -33 -165 -64 -303 -68 -307 -12 -12 -253 -56 -375 -69 -269 -26 -630 2
-761 59 l-46 21 0 543 c0 545 -8 743 -36 938 -38 265 -121 479 -232 601 -119
129 -247 166 -374 107 -207 -96 -343 -393 -402 -876 -37 -299 -40 -807 -7
-1180 l7 -84 -41 -23 c-213 -122 -614 -159 -990 -89 -112 20 -268 63 -281 77
-6 7 -21 75 -33 152 -79 497 -255 1252 -476 2040 -85 302 -274 945 -283 960
-8 13 -16 -24 -46 -220 -38 -238 -55 -441 -63 -719 l-6 -250 -34 39 c-134 155
-247 581 -284 1065 -14 188 -6 572 15 751 36 298 170 680 357 1024 381 696
933 1186 1596 1415 392 136 741 173 1153 124z"/>
</g>
</svg>
