<?xml version="1.0" standalone="no"?>
<!DOCTYPE svg PUBLIC "-//W3C//DTD SVG 20010904//EN"
 "http://www.w3.org/TR/2001/REC-SVG-20010904/DTD/svg10.dtd">
<svg version="1.0" xmlns="http://www.w3.org/2000/svg"
 width="240.000000pt" height="200.000000pt" viewBox="0 0 240.000000 200.000000"
 preserveAspectRatio="xMidYMid meet">

<g transform="translate(0.000000,200.000000) scale(0.100000,-0.100000)"
fill="#000000" stroke="none">
<path d="M761 1906 c-68 -24 -104 -66 -187 -211 -6 -11 -21 -37 -32 -57 -12
-21 -31 -54 -42 -73 -11 -19 -29 -51 -40 -70 -11 -19 -29 -51 -40 -70 -11 -19
-29 -50 -39 -69 -11 -18 -38 -64 -60 -101 -67 -110 -101 -189 -101 -235 0 -46
34 -125 101 -235 22 -37 49 -83 60 -101 10 -19 28 -50 39 -69 11 -19 29 -51
40 -70 11 -19 29 -51 40 -70 11 -19 30 -52 42 -72 11 -21 26 -47 32 -58 62
-109 83 -140 117 -168 21 -19 56 -39 78 -45 54 -17 848 -17 902 0 64 19 112
69 181 190 34 61 74 129 87 152 13 23 32 56 42 74 44 77 60 104 78 136 11 18
38 64 60 101 67 110 101 189 101 235 0 46 -34 125 -101 235 -22 37 -49 83 -60
101 -18 32 -34 59 -78 137 -10 17 -29 50 -42 73 -13 23 -53 91 -87 152 -69
121 -117 171 -181 190 -55 17 -863 15 -910 -2z m516 -308 c23 -21 23 -22 23
-298 l0 -277 -25 -23 c-35 -33 -90 -33 -116 0 -17 23 -19 46 -19 299 0 268 0
275 22 298 28 30 83 31 115 1z m-309 -98 c27 -17 32 -26 32 -57 0 -33 -8 -46
-58 -95 -90 -88 -125 -171 -124 -294 0 -119 28 -191 109 -275 85 -89 170 -124
298 -123 81 1 98 5 159 34 144 70 234 211 236 369 0 98 -48 208 -123 283 -72
71 -82 90 -63 126 8 15 26 34 39 41 23 12 30 11 70 -12 77 -45 157 -153 197
-268 34 -92 34 -257 1 -348 -70 -193 -209 -317 -411 -367 -285 -70 -593 133
-655 431 -28 132 -13 227 57 371 32 65 107 151 160 184 40 24 36 24 76 0z"/>
</g>
</svg>
