<?xml version="1.0" encoding="utf-8"?>
<!-- Generator: Adobe Illustrator 22.1.0, SVG Export Plug-In . SVG Version: 6.00 Build 0)  -->
<svg version="1.1" id="Layer_1" xmlns="http://www.w3.org/2000/svg" xmlns:xlink="http://www.w3.org/1999/xlink" x="0px" y="0px"
	 viewBox="0 0 32 32" style="enable-background:new 0 0 32 32;" xml:space="preserve">
<title>heroku</title>
<path d="M27.5,0h-23C2.9,0,1.6,1.3,1.6,2.9v26.2c0,1.6,1.3,2.9,2.9,2.9h23c1.6,0,2.9-1.3,2.9-2.9V2.9C30.4,1.3,29.1,0,27.5,0z
	 M28.8,29.1c0,0.7-0.6,1.3-1.3,1.3h-23c-0.7,0-1.3-0.6-1.3-1.3V2.9c0-0.7,0.6-1.3,1.3-1.3h23c0.7,0,1.3,0.6,1.3,1.3V29.1z M8.8,27.2
	l3.6-3.2l-3.6-3.2V27.2z M21.8,14.2c-0.6-0.6-1.8-1.4-3.8-1.4c-2.2,0-4.4,0.6-6,1.1V4.8H8.8v13.8l2.2-1c0,0,3.7-1.7,6.9-1.7
	c1.6,0,2,0.9,2,1.7v9.6h3.2v-9.6C23.2,17.4,23.2,15.6,21.8,14.2z M17.6,10h3.2c1.4-1.7,2.2-3.4,2.4-5.2H20
	C19.6,6.6,18.8,8.3,17.6,10z"/>
</svg>
