<?xml version="1.0" encoding="utf-8"?>
<!-- Generator: Adobe Illustrator 22.1.0, SVG Export Plug-In . SVG Version: 6.00 Build 0)  -->
<svg version="1.1" id="Layer_1" xmlns="http://www.w3.org/2000/svg" xmlns:xlink="http://www.w3.org/1999/xlink" x="0px" y="0px"
	 viewBox="0 0 512 512" style="enable-background:new 0 0 512 512;" xml:space="preserve">
<g>
	<title>java</title>
	<g>
		<path d="M226.5,379c0,0-17.2,10,12.2,13.4c35.7,4.1,53.9,3.5,93.2-4c0,0,10.3,6.5,24.8,12.2C268.5,438.3,157.2,398.3,226.5,379
			L226.5,379z M215.7,329.8c0,0-19.3,14.3,10.1,17.3c38.2,4,68.2,4.3,120.3-5.7c0,0,7.2,7.3,18.5,11.3
			C258.1,383.7,139.5,355,215.7,329.8L215.7,329.8z M306.4,246.2c21.7,25-5.7,47.5-5.7,47.5s55.1-28.5,29.8-64.1
			c-23.6-33.3-41.8-49.7,56.3-106.7C386.9,122.9,232.8,161.4,306.4,246.2L306.4,246.2z M422.9,415.5c0,0,12.8,10.5-14,18.6
			c-50.8,15.4-211.6,20-256.3,0.6c-16-7,14.1-16.7,23.5-18.7c9.9-2.2,15.5-1.7,15.5-1.7c-17.9-12.6-115.4,24.7-49.6,35.4
			C321.8,478.7,469.6,436.5,422.9,415.5z M234.7,278.7c0,0-81.8,19.4-29,26.4c22.3,3,66.8,2.3,108.3-1.2c33.8-2.9,67.8-8.9,67.8-8.9
			s-11.9,5.1-20.6,11.1c-83.1,21.8-243.5,11.6-197.3-10.7C203,276.6,234.7,278.7,234.7,278.7z M381.5,360.7
			c84.4-43.9,45.3-86.1,18.2-80.3c-6.7,1.3-9.7,2.6-9.7,2.6s2.4-3.9,7.2-5.6c53.9-19,95.4,55.9-17.4,85.5
			C379.8,362.9,381.1,361.8,381.5,360.7L381.5,360.7z M330.5,31c0,0,46.7,46.7-44.4,118.6c-73,57.7-16.6,90.6,0,128.2
			c-42.6-38.5-73.9-72.3-52.9-103.8C264,127.7,349.4,105.3,330.5,31z M243,479.6c81,5.1,205.4-2.9,208.5-41.2c0,0-5.7,14.5-67,26.1
			c-69.1,13-154.5,11.5-205.1,3.2C179.4,467.6,189.8,476.2,243,479.6L243,479.6z"/>
	</g>
</g>
</svg>
