<?xml version="1.0" encoding="utf-8"?>
<!-- Generator: Adobe Illustrator 22.1.0, SVG Export Plug-In . SVG Version: 6.00 Build 0)  -->
<svg version="1.1" id="Layer_1" xmlns="http://www.w3.org/2000/svg" xmlns:xlink="http://www.w3.org/1999/xlink" x="0px" y="0px"
	 viewBox="0 0 32 32" style="enable-background:new 0 0 32 32;" xml:space="preserve">
<title>laravel</title>
<path d="M31.5,7.2c0,0,0,0.1,0,0.1v6.9c0,0.2-0.1,0.3-0.2,0.4L25.5,18v6.6c0,0.2-0.1,0.3-0.2,0.4l-12,6.9c0,0-0.1,0-0.1,0
	c0,0,0,0,0,0c-0.1,0-0.2,0-0.3,0c0,0,0,0,0,0c0,0-0.1,0-0.1,0L0.7,25c-0.2-0.1-0.3-0.3-0.3-0.4V4c0,0,0-0.1,0-0.1c0,0,0,0,0,0
	c0,0,0-0.1,0-0.1c0,0,0,0,0,0c0,0,0,0,0-0.1c0,0,0,0,0,0c0,0,0,0,0.1,0l6-3.5C6.9,0,7.1,0,7.2,0.1l6,3.5c0,0,0,0,0.1,0
	c0,0,0,0,0.1,0c0,0,0,0,0,0.1c0,0,0,0,0,0c0,0,0,0.1,0,0.1c0,0,0,0,0,0c0,0,0,0.1,0,0.1v12.9l5-2.9V7.4c0,0,0-0.1,0-0.1c0,0,0,0,0,0
	c0,0,0-0.1,0-0.1c0,0,0,0,0,0c0,0,0,0,0-0.1s0,0,0.1,0c0,0,0,0,0.1,0l6-3.5c0.2-0.1,0.3-0.1,0.5,0l6,3.5c0,0,0,0,0.1,0c0,0,0,0,0,0
	s0,0,0,0.1c0,0,0,0,0,0C31.5,7.1,31.5,7.2,31.5,7.2C31.5,7.2,31.5,7.2,31.5,7.2L31.5,7.2z M30.5,13.9V8.2l-2.1,1.2l-2.9,1.7v5.7
	L30.5,13.9z M24.5,24.3v-5.7l-2.9,1.6l-8.2,4.7v5.8L24.5,24.3z M1.5,4.8v19.4l11,6.3v-5.8l-5.8-3.3c0,0,0,0-0.1,0c0,0,0,0,0,0h0
	c0,0,0,0,0-0.1c0,0,0,0,0-0.1c0,0,0,0,0-0.1c0,0,0,0,0-0.1s0,0,0-0.1c0,0,0,0,0-0.1V7.7L3.6,6L1.5,4.8z M7,1.1L2,4l5,2.9L12,4L7,1.1
	z M9.6,19.1l2.9-1.7V4.8L10.4,6L7.5,7.7v12.6L9.6,19.1z M25,4.5l-5,2.9l5,2.9l5-2.9L25,4.5z M24.5,11.1l-5-2.9v5.7l2.9,1.7l2.1,1.2
	L24.5,11.1z M13,24l11-6.3l-5-2.9L8,21.2L13,24z"/>
</svg>
