<?xml version="1.0" encoding="utf-8"?>
<!-- Generator: Adobe Illustrator 22.1.0, SVG Export Plug-In . SVG Version: 6.00 Build 0)  -->
<svg version="1.1" id="Layer_1" xmlns="http://www.w3.org/2000/svg" xmlns:xlink="http://www.w3.org/1999/xlink" x="0px" y="0px"
	 viewBox="0 0 32 32" style="enable-background:new 0 0 32 32;" xml:space="preserve">
<title>lumen</title>
<path d="M15.5,0c-0.2,0-0.3,0-0.5,0.1l-6.5,3C7.4,3.6,8.2,5.4,9.4,4.9l6.5-3C16.9,1.5,16.6,0,15.5,0L15.5,0z M23,0.5
	c-0.2,0-0.3,0-0.5,0.1l-14,6.5C7.4,7.6,8.2,9.5,9.4,8.9l14-6.5C24.4,2,24.1,0.5,23,0.5L23,0.5z M23,4.5c-0.2,0-0.3,0-0.5,0.1
	l-14,6.5c-1.2,0.6-0.4,2.4,0.8,1.8l14-6.5C24.4,6,24.1,4.5,23,4.5L23,4.5z M23,8.5c-0.2,0-0.3,0-0.5,0.1l-14,6.5
	c-1.2,0.6-0.4,2.4,0.8,1.8l14-6.5C24.4,10,24.1,8.5,23,8.5L23,8.5z M23,12.5c-0.2,0-0.3,0-0.5,0.1l-5,2.2C17.2,15,17,15.3,17,15.7
	v4.7c0,0,0,0,0,0.1h-2c0,0,0,0,0-0.1V17c0-0.6-0.5-1-1-1c-0.6,0-1,0.5-1,1v3.4c0,0,0,0,0,0.1h-1.2c-0.4,0-0.7,0.3-0.6,0.7l0.3,1.5
	c0.1,0.4,0.4,0.7,0.9,0.7h3l-3.4,0.6c-0.3,0.1-0.5,0.3-0.4,0.6c0.1,0.3,0.3,0.4,0.6,0.4l8-1.5c0.3,0,0.4-0.3,0.4-0.5
	c0.1-0.1,0.1-0.2,0.1-0.3l0.2-1.5c0.1-0.4-0.2-0.8-0.6-0.7H19c0,0,0,0,0-0.1v-4l4.4-2C24.4,14,24.1,12.5,23,12.5L23,12.5z M20,25
	C20,25,19.9,25,20,25l-8.1,1.5c-0.3,0-0.5,0.3-0.4,0.6c0.1,0.3,0.3,0.4,0.6,0.4l8-1.5C20.7,25.9,20.6,25,20,25z M20,27.5
	C20,27.5,19.9,27.5,20,27.5L11.9,29c-0.3,0-0.5,0.3-0.4,0.6c0.1,0.3,0.3,0.5,0.6,0.4l8-1.5C20.7,28.4,20.6,27.5,20,27.5L20,27.5z
	 M19,30C19,30,18.9,30,19,30l-6,1c-0.3,0-0.5,0.3-0.4,0.6c0,0.3,0.3,0.5,0.6,0.4l6-1C19.7,30.9,19.6,30,19,30z"/>
</svg>
