 <?xml version="1.0" encoding="utf-8"?>
<!-- Generator: Adobe Illustrator 22.1.0, SVG Export Plug-In . SVG Version: 6.00 Build 0)  -->
<svg version="1.1" id="Layer_1" xmlns="http://www.w3.org/2000/svg" xmlns:xlink="http://www.w3.org/1999/xlink" x="0px" y="0px"
	 viewBox="0 0 32 32" style="enable-background:new 0 0 32 32;" xml:space="preserve">
<title>quarkus</title>
<path d="M17.1,21.3l5.2-3v-6l-5.2,3V21.3z M17.5,21.6l4.7,2.7v-5.4L17.5,21.6L17.5,21.6z M21.9,11.3V5.9l-4.7,2.7L21.9,11.3
	L21.9,11.3z M16.8,8.9l-5.2,3l5.2,3l5.2-3L16.8,8.9z M16.3,8.6l-4.7-2.7v5.4L16.3,8.6z M22.7,12.6V18l4.7-2.7L22.7,12.6L22.7,12.6z
	 M16.5,21.3v-6l-5.2-3v6L16.5,21.3z M10.8,12.6l-4.7,2.7l4.7,2.7V12.6z M11.3,18.9v5.4l4.7-2.7L11.3,18.9z M26.7,0.2H5.3
	C2.4,0.2,0,2.5,0,5.4v21.1c0,2.9,2.4,5.2,5.3,5.2h14.6L16,22.3l-2.9,6H5.3c-1,0-1.8-0.8-1.8-1.7V5.4c0-0.9,0.8-1.7,1.8-1.7h21.4
	c1,0,1.8,0.8,1.8,1.7v21.1c0,0.9-0.8,1.7-1.8,1.7H22l1.5,3.5h3.2c2.9,0,5.3-2.4,5.3-5.2V5.4C32,2.5,29.6,0.2,26.7,0.2z"/>
</svg>
