<?xml version="1.0" encoding="utf-8"?>
<!-- Generator: Adobe Illustrator 22.1.0, SVG Export Plug-In . SVG Version: 6.00 Build 0)  -->
<svg version="1.1" id="Layer_1" xmlns="http://www.w3.org/2000/svg" xmlns:xlink="http://www.w3.org/1999/xlink" x="0px" y="0px"
	 viewBox="0 0 32 32" style="enable-background:new 0 0 32 32;" xml:space="preserve">
<title>jekyll</title>
<path d="M10.8,32c-0.5,0-0.9-0.1-1.4-0.2c-1.8-0.7-2.8-2.7-2.3-4.5l0,0l0.1-0.3l9.3-24.2c0.1-0.4,0.1-1.2,0-1.7c0-0.1,0-0.2,0-0.3
	l0,0l0,0v0l0,0C16.7,0.2,17.2,0,17.9,0c0.9,0,2.1,0.3,3.4,0.8c1.1,0.4,2,0.9,2.7,1.4c0.8,0.6,1.1,1.1,0.9,1.6l0,0.1l0,0
	C24.9,4,24.8,4,24.7,4.1c-0.4,0.4-1,1-1.1,1.3l-9.4,24.6l0,0C13.5,31.2,12.2,32,10.8,32L10.8,32L10.8,32z M7.8,27L7.8,27
	c-0.6,1.7,0.2,3.5,1.8,4.1c0.4,0.1,0.7,0.2,1.1,0.2c1.3,0,2.4-0.8,2.9-2l0-0.1L23,5.1c0.2-0.5,1.1-1.4,1.3-1.5l0,0c0,0,0,0,0,0
	c0-0.1-0.1-0.4-0.7-0.9c-0.6-0.5-1.5-1-2.5-1.3c-1.2-0.4-2.4-0.7-3.2-0.7c-0.5,0-0.7,0.1-0.7,0.2v0.1c0,0.1,0.2,1.4,0,2L7.8,27
	L7.8,27z M19.8,11.7c0,0-1.3,1.5-2.5,2c-1.2,0.5-2,0.4-3.1,1c-1.1,0.6-1.6,1.5-1.6,1.5L8.4,27.3c-0.5,1.3,0.2,2.7,1.5,3.2
	c1.3,0.5,2.7-0.2,3.2-1.4L19.8,11.7z M13.2,25c0.1-0.1,0.3,0,0.4,0.1c0.1,0.1,0,0.3-0.1,0.4s-0.3,0-0.4-0.1
	C13,25.2,13.1,25.1,13.2,25L13.2,25z M11.9,22.6c-0.2,0.1-0.4,0-0.5-0.2s0-0.4,0.2-0.5c0.2-0.1,0.4,0,0.5,0.2
	C12.2,22.3,12.1,22.5,11.9,22.6L11.9,22.6z M12.2,21.2c-0.2-0.4,0-0.8,0.4-1c0.4-0.2,0.8,0,1,0.4c0.2,0.4,0,0.8-0.4,1
	C12.8,21.7,12.4,21.5,12.2,21.2L12.2,21.2z M15.5,18.1c0.2-0.1,0.4,0,0.5,0.2c0.1,0.2,0,0.4-0.2,0.5c-0.2,0.1-0.4,0-0.5-0.2
	C15.2,18.5,15.3,18.2,15.5,18.1L15.5,18.1z M13.7,16.3c0.1-0.1,0.3,0,0.4,0.1c0.1,0.1,0,0.3-0.1,0.4c-0.1,0.1-0.3,0-0.4-0.1
	C13.6,16.5,13.6,16.4,13.7,16.3L13.7,16.3z M18.2,1.5c0.1-0.3,1.3-0.2,2.7,0.3c1.3,0.5,2.3,1.2,2.2,1.6c-0.1,0.4-1.3,0.2-2.7-0.3
	C19.1,2.6,18.1,1.9,18.2,1.5L18.2,1.5z"/>
</svg>
